<?xml version="1.0" encoding="us-ascii" standalone="no"?><svg xmlns="http://www.w3.org/2000/svg" xmlns:xlink="http://www.w3.org/1999/xlink" contentStyleType="text/css" height="4944px" preserveAspectRatio="none" style="width:6220px;height:4944px;background:#F9F9F9;" version="1.1" viewBox="0 0 6220 4944" width="6220px" zoomAndPan="magnify"><defs/><g><rect fill="#F9F9F9" height="4944" style="stroke:none;stroke-width:4.0;" width="6220" x="0" y="0"/><text fill="#000000" font-family="sans-serif" font-size="56" font-weight="bold" lengthAdjust="spacing" textLength="1104" x="2531" y="138.1328">Optimal Sailing Course Web Application</text><!--cluster Optimal Sailing Course Web Application--><g id="cluster_Optimal Sailing Course Web Application"><path d="M1800,834.4375 L2980,834.4375 A21,21 0 0 1 2994,848.4375 L3022,1008.875 L6180,1008.875 A14,14 0 0 1 6194,1022.875 L6194,3920.4375 A14,14 0 0 1 6180,3934.4375 L1800,3934.4375 A14,14 0 0 1 1786,3920.4375 L1786,848.4375 A14,14 0 0 1 1800,834.4375 " fill="none" style="stroke:#393939;stroke-width:4.0;"/><line style="stroke:#393939;stroke-width:4.0;" x1="1786" x2="3022" y1="1008.875" y2="1008.875"/><text fill="#000000" font-family="sans-serif" font-size="56" font-weight="bold" lengthAdjust="spacing" textLength="1104" x="1842" y="940.5703">Optimal Sailing Course Web Application</text></g><!--cluster Backend Services--><g id="cluster_Backend Services"><path d="M2104,2130.4375 L2688,2130.4375 A21,21 0 0 1 2702,2144.4375 L2730,2304.875 L5828,2304.875 A14,14 0 0 1 5842,2318.875 L5842,2836.4375 A14,14 0 0 1 5828,2850.4375 L2104,2850.4375 A14,14 0 0 1 2090,2836.4375 L2090,2144.4375 A14,14 0 0 1 2104,2130.4375 " fill="none" style="stroke:#393939;stroke-width:4.0;"/><line style="stroke:#393939;stroke-width:4.0;" x1="2090" x2="2730" y1="2304.875" y2="2304.875"/><text fill="#000000" font-family="sans-serif" font-size="56" font-weight="bold" lengthAdjust="spacing" textLength="508" x="2146" y="2236.5703">Backend Services</text></g><!--cluster External Data Fetchers--><g id="cluster_External Data Fetchers"><path d="M2444,3118.4375 L3160,3118.4375 A21,21 0 0 1 3174,3132.4375 L3202,3292.875 L5220,3292.875 A14,14 0 0 1 5234,3306.875 L5234,3824.4375 A14,14 0 0 1 5220,3838.4375 L2444,3838.4375 A14,14 0 0 1 2430,3824.4375 L2430,3132.4375 A14,14 0 0 1 2444,3118.4375 " fill="none" style="stroke:#393939;stroke-width:4.0;"/><line style="stroke:#393939;stroke-width:4.0;" x1="2430" x2="3202" y1="3292.875" y2="3292.875"/><text fill="#000000" font-family="sans-serif" font-size="56" font-weight="bold" lengthAdjust="spacing" textLength="640" x="2486" y="3224.5703">External Data Fetchers</text></g><!--cluster Frontend--><g id="cluster_Frontend"><path d="M2452,1090.4375 L2788,1090.4375 A21,21 0 0 1 2802,1104.4375 L2830,1264.875 L2976,1264.875 A14,14 0 0 1 2990,1278.875 L2990,1796.4375 A14,14 0 0 1 2976,1810.4375 L2452,1810.4375 A14,14 0 0 1 2438,1796.4375 L2438,1104.4375 A14,14 0 0 1 2452,1090.4375 " fill="none" style="stroke:#393939;stroke-width:4.0;"/><line style="stroke:#393939;stroke-width:4.0;" x1="2438" x2="2830" y1="1264.875" y2="1264.875"/><text fill="#000000" font-family="sans-serif" font-size="56" font-weight="bold" lengthAdjust="spacing" textLength="260" x="2494" y="1196.5703">Frontend</text></g><!--cluster External Databases--><g id="cluster_External Databases"><path d="M2684,4202.4375 L3300,4202.4375 A21,21 0 0 1 3314,4216.4375 L3342,4376.875 L4772,4376.875 A14,14 0 0 1 4786,4390.875 L4786,4904.4375 A14,14 0 0 1 4772,4918.4375 L2684,4918.4375 A14,14 0 0 1 2670,4904.4375 L2670,4216.4375 A14,14 0 0 1 2684,4202.4375 " fill="none" style="stroke:#393939;stroke-width:4.0;"/><line style="stroke:#393939;stroke-width:4.0;" x1="2670" x2="3342" y1="4376.875" y2="4376.875"/><text fill="#000000" font-family="sans-serif" font-size="56" font-weight="bold" lengthAdjust="spacing" textLength="540" x="2726" y="4308.5703">External Databases</text></g><!--entity APIG--><g id="elem_APIG"><rect fill="#F1F1F1" height="270.4375" rx="14" ry="14" style="stroke:#181818;stroke-width:2.0;" width="560" x="5218" y="2514.4375"/><rect fill="#F1F1F1" height="40" style="stroke:#181818;stroke-width:2.0;" width="60" x="5698" y="2534.4375"/><rect fill="#F1F1F1" height="8" style="stroke:#181818;stroke-width:2.0;" width="16" x="5690" y="2542.4375"/><rect fill="#F1F1F1" height="8" style="stroke:#181818;stroke-width:2.0;" width="16" x="5690" y="2558.4375"/><text fill="#000000" font-family="sans-serif" font-size="56" lengthAdjust="spacing" textLength="320" x="5318" y="2692.5703">API Gateway</text></g><!--entity RP--><g id="elem_RP"><rect fill="#F1F1F1" height="270.4375" rx="14" ry="14" style="stroke:#181818;stroke-width:2.0;" width="724" x="3788" y="2514.4375"/><rect fill="#F1F1F1" height="40" style="stroke:#181818;stroke-width:2.0;" width="60" x="4432" y="2534.4375"/><rect fill="#F1F1F1" height="8" style="stroke:#181818;stroke-width:2.0;" width="16" x="4424" y="2542.4375"/><rect fill="#F1F1F1" height="8" style="stroke:#181818;stroke-width:2.0;" width="16" x="4424" y="2558.4375"/><text fill="#000000" font-family="sans-serif" font-size="56" lengthAdjust="spacing" textLength="484" x="3888" y="2692.5703">Request Processor</text></g><!--entity CCE--><g id="elem_CCE"><rect fill="#F1F1F1" height="270.4375" rx="14" ry="14" style="stroke:#181818;stroke-width:2.0;" width="952" x="2154" y="2514.4375"/><rect fill="#F1F1F1" height="40" style="stroke:#181818;stroke-width:2.0;" width="60" x="3026" y="2534.4375"/><rect fill="#F1F1F1" height="8" style="stroke:#181818;stroke-width:2.0;" width="16" x="3018" y="2542.4375"/><rect fill="#F1F1F1" height="8" style="stroke:#181818;stroke-width:2.0;" width="16" x="3018" y="2558.4375"/><text fill="#000000" font-family="sans-serif" font-size="56" lengthAdjust="spacing" textLength="712" x="2254" y="2692.5703">Course Computation Engine</text></g><!--entity WDF--><g id="elem_WDF"><rect fill="#F1F1F1" height="270.4375" rx="14" ry="14" style="stroke:#181818;stroke-width:2.0;" width="716" x="2496" y="3502.4375"/><rect fill="#F1F1F1" height="40" style="stroke:#181818;stroke-width:2.0;" width="60" x="3132" y="3522.4375"/><rect fill="#F1F1F1" height="8" style="stroke:#181818;stroke-width:2.0;" width="16" x="3124" y="3530.4375"/><rect fill="#F1F1F1" height="8" style="stroke:#181818;stroke-width:2.0;" width="16" x="3124" y="3546.4375"/><text fill="#000000" font-family="sans-serif" font-size="56" lengthAdjust="spacing" textLength="476" x="2596" y="3680.5703">Wind Data Fetcher</text></g><!--entity OCF--><g id="elem_OCF"><rect fill="#F1F1F1" height="270.4375" rx="14" ry="14" style="stroke:#181818;stroke-width:2.0;" width="964" x="3352" y="3502.4375"/><rect fill="#F1F1F1" height="40" style="stroke:#181818;stroke-width:2.0;" width="60" x="4236" y="3522.4375"/><rect fill="#F1F1F1" height="8" style="stroke:#181818;stroke-width:2.0;" width="16" x="4228" y="3530.4375"/><rect fill="#F1F1F1" height="8" style="stroke:#181818;stroke-width:2.0;" width="16" x="4228" y="3546.4375"/><text fill="#000000" font-family="sans-serif" font-size="56" lengthAdjust="spacing" textLength="724" x="3452" y="3680.5703">Ocean Current Data Fetcher</text></g><!--entity TDF--><g id="elem_TDF"><rect fill="#F1F1F1" height="270.4375" rx="14" ry="14" style="stroke:#181818;stroke-width:2.0;" width="712" x="4458" y="3502.4375"/><rect fill="#F1F1F1" height="40" style="stroke:#181818;stroke-width:2.0;" width="60" x="5090" y="3522.4375"/><rect fill="#F1F1F1" height="8" style="stroke:#181818;stroke-width:2.0;" width="16" x="5082" y="3530.4375"/><rect fill="#F1F1F1" height="8" style="stroke:#181818;stroke-width:2.0;" width="16" x="5082" y="3546.4375"/><text fill="#000000" font-family="sans-serif" font-size="56" lengthAdjust="spacing" textLength="472" x="4558" y="3680.5703">Tidal Data Fetcher</text></g><!--entity UI--><g id="elem_UI"><rect fill="#F1F1F1" height="270.4375" rx="14" ry="14" style="stroke:#181818;stroke-width:2.0;" width="420" x="2504" y="1474.4375"/><rect fill="#F1F1F1" height="40" style="stroke:#181818;stroke-width:2.0;" width="60" x="2844" y="1494.4375"/><rect fill="#F1F1F1" height="8" style="stroke:#181818;stroke-width:2.0;" width="16" x="2836" y="1502.4375"/><rect fill="#F1F1F1" height="8" style="stroke:#181818;stroke-width:2.0;" width="16" x="2836" y="1518.4375"/><text fill="#000000" font-family="sans-serif" font-size="56" lengthAdjust="spacing" textLength="180" x="2604" y="1652.5703">Web UI</text></g><!--entity WIND_DB--><g id="elem_WIND_DB"><path d="M2736,4626.4375 C2736,4586.4375 3010,4586.4375 3010,4586.4375 C3010,4586.4375 3284,4586.4375 3284,4626.4375 L3284,4812.875 C3284,4852.875 3010,4852.875 3010,4852.875 C3010,4852.875 2736,4852.875 2736,4812.875 L2736,4626.4375 " fill="#A4DBD8" style="stroke:#191919;stroke-width:2.0;"/><path d="M2736,4626.4375 C2736,4666.4375 3010,4666.4375 3010,4666.4375 C3010,4666.4375 3284,4666.4375 3284,4626.4375 " fill="none" style="stroke:#191919;stroke-width:2.0;"/><text fill="#191919" font-family="sans-serif" font-size="56" lengthAdjust="spacing" textLength="388" x="2816" y="4780.5703">Wind Database</text></g><!--entity CUR_DB--><g id="elem_CUR_DB"><path d="M3424,4626.4375 C3424,4586.4375 3730,4586.4375 3730,4586.4375 C3730,4586.4375 4036,4586.4375 4036,4626.4375 L4036,4812.875 C4036,4852.875 3730,4852.875 3730,4852.875 C3730,4852.875 3424,4852.875 3424,4812.875 L3424,4626.4375 " fill="#A4DBD8" style="stroke:#191919;stroke-width:2.0;"/><path d="M3424,4626.4375 C3424,4666.4375 3730,4666.4375 3730,4666.4375 C3730,4666.4375 4036,4666.4375 4036,4626.4375 " fill="none" style="stroke:#191919;stroke-width:2.0;"/><text fill="#191919" font-family="sans-serif" font-size="56" lengthAdjust="spacing" textLength="452" x="3504" y="4780.5703">Current Database</text></g><!--entity TIDE_DB--><g id="elem_TIDE_DB"><path d="M4178,4626.4375 C4178,4586.4375 4450,4586.4375 4450,4586.4375 C4450,4586.4375 4722,4586.4375 4722,4626.4375 L4722,4812.875 C4722,4852.875 4450,4852.875 4450,4852.875 C4450,4852.875 4178,4852.875 4178,4812.875 L4178,4626.4375 " fill="#A4DBD8" style="stroke:#191919;stroke-width:2.0;"/><path d="M4178,4626.4375 C4178,4666.4375 4450,4666.4375 4450,4666.4375 C4450,4666.4375 4722,4666.4375 4722,4626.4375 " fill="none" style="stroke:#191919;stroke-width:2.0;"/><text fill="#191919" font-family="sans-serif" font-size="56" lengthAdjust="spacing" textLength="384" x="4258" y="4780.5703">Tidal Database</text></g><!--entity U--><g id="elem_U"><ellipse cx="82" cy="1448.4375" fill="#191919" rx="32" ry="32" style="stroke:#191919;stroke-width:2.0;"/><path d="M82,1480.4375 L82,1588.4375 M30,1512.4375 L134,1512.4375 M82,1588.4375 L30,1648.4375 M82,1588.4375 L134,1648.4375 " fill="none" style="stroke:#191919;stroke-width:2.0;"/><text fill="#191919" font-family="sans-serif" font-size="56" lengthAdjust="spacing" textLength="116" x="24" y="1752.5703">User</text></g><g id="elem_GMN37"><path d="M322,1498.4375 L322,1721.25 A14,14 0 0 0 336,1735.25 L1196.76,1735.25 L2424.28,2514.3975 L1228.76,1735.25 L1708,1735.25 A14,14 0 0 0 1722,1721.25 L1722,1524.4375 L1682,1484.4375 L336,1484.4375 A14,14 0 0 0 322,1498.4375 " fill="#E5E5E5" style="stroke:#191919;stroke-width:6.0;"/><path d="M1682,1484.4375 L1682,1517.4375 A7,7 0 0 0 1689,1524.4375 L1722,1524.4375 L1682,1484.4375 " fill="#E5E5E5" style="stroke:#191919;stroke-width:6.0;"/><text fill="#191919" font-family="sans-serif" font-size="52" lengthAdjust="spacing" textLength="1220" x="386" y="1598.418">Python backend that communicate with the front end</text><text fill="#191919" font-family="sans-serif" font-size="52" lengthAdjust="spacing" textLength="1096" x="464" y="1663.8242">via a Flask server (upgrades should use django)</text></g><g id="elem_GMN40"><path d="M1900,272.4375 L1900,495.25 A14,14 0 0 0 1914,509.25 L2698,509.25 L2714,1473.1175 L2730,509.25 L3514,509.25 A14,14 0 0 0 3528,495.25 L3528,298.4375 L3488,258.4375 L1914,258.4375 A14,14 0 0 0 1900,272.4375 " fill="#E5E5E5" style="stroke:#191919;stroke-width:6.0;"/><path d="M3488,258.4375 L3488,291.4375 A7,7 0 0 0 3495,298.4375 L3528,298.4375 L3488,258.4375 " fill="#E5E5E5" style="stroke:#191919;stroke-width:6.0;"/><text fill="#191919" font-family="sans-serif" font-size="52" lengthAdjust="spacing" textLength="1448" x="1964" y="372.418">Electron web app rendered in a web browser and communicate</text><text fill="#191919" font-family="sans-serif" font-size="52" lengthAdjust="spacing" textLength="1064" x="2172" y="437.8242">with the backend python server through HTTP.</text></g><!--link U to UI--><g id="link_U_UI"><path d="M128.08,1413.1975 C179.04,1195.1975 254,874.4375 254,874.4375 C254,874.4375 1794,874.4375 1794,874.4375 C1794,874.4375 2258.2983,1245.8858 2524.3783,1458.7258 " fill="none" id="U-to-UI" style="stroke:#191919;stroke-width:4.0;"/><polygon fill="#191919" points="2543.12,1473.7175,2525.0019,1438.7356,2527.5019,1461.2245,2505.0131,1463.7245,2543.12,1473.7175" style="stroke:#191919;stroke-width:4.0;"/><text fill="#000000" font-family="sans-serif" font-size="44" lengthAdjust="spacing" textLength="456" x="1394" y="720.1133">Enters Boat Parameters</text></g><!--link UI to APIG--><g id="link_UI_APIG"><path d="M2925.44,1644.9175 C3469.96,1723.4375 4878,1926.4375 4878,1926.4375 C4878,1926.4375 5189.6198,2288.3307 5368.6198,2496.2107 " fill="none" id="UI-to-APIG" style="stroke:#191919;stroke-width:4.0;"/><polygon fill="#191919" points="5384.28,2514.3975,5372.9143,2476.6772,5371.2299,2499.2418,5348.6652,2497.5574,5384.28,2514.3975" style="stroke:#191919;stroke-width:4.0;"/><text fill="#000000" font-family="sans-serif" font-size="44" lengthAdjust="spacing" textLength="728" x="5038" y="2016.1133">Sends Parameters for Optimal Course</text></g><!--link APIG to UI--><g id="link_APIG_UI"><path d="M5276.28,2513.7975 C5005.16,2351.5975 4582,2098.4375 4582,2098.4375 C4582,2098.4375 4094,2066.4375 4094,2066.4375 C4094,2066.4375 3334.4882,1817.6665 2947.8882,1691.0665 " fill="none" id="APIG-to-UI" style="stroke:#191919;stroke-width:4.0;"/><polygon fill="#191919" points="2925.08,1683.5975,2954.313,1710.0065,2944.0868,1689.8217,2964.2716,1679.5955,2925.08,1683.5975" style="stroke:#191919;stroke-width:4.0;"/><text fill="#000000" font-family="sans-serif" font-size="44" lengthAdjust="spacing" textLength="680" x="4138" y="2016.1133">Delivers Optimal Course for Display</text></g><!--link APIG to RP--><g id="link_APIG_RP"><path d="M5217.72,2650.4375 C5013.32,2650.4375 4758.48,2650.4375 4537,2650.4375 " fill="none" id="APIG-to-RP" style="stroke:#191919;stroke-width:4.0;"/><polygon fill="#191919" points="4513,2650.4375,4549,2666.4375,4533,2650.4375,4549,2634.4375,4513,2650.4375" style="stroke:#191919;stroke-width:4.0;"/><text fill="#000000" font-family="sans-serif" font-size="44" lengthAdjust="spacing" textLength="528" x="4601" y="2588.1133">Forwards User Parameters</text></g><!--link RP to APIG--><g id="link_RP_APIG"><path d="M4513.64,2778.6775 C4554.08,2792.9175 4581,2802.4375 4581,2802.4375 C4581,2802.4375 5149,2802.4375 5149,2802.4375 C5149,2802.4375 5155.3558,2799.6596 5195.9558,2781.9796 " fill="none" id="RP-to-APIG" style="stroke:#191919;stroke-width:4.0;"/><polygon fill="#191919" points="5217.96,2772.3975,5178.5657,2772.1012,5199.6232,2780.3826,5191.3418,2801.4401,5217.96,2772.3975" style="stroke:#191919;stroke-width:4.0;"/><text fill="#000000" font-family="sans-serif" font-size="44" lengthAdjust="spacing" textLength="480" x="4625" y="2752.1133">Sends Computed Course</text></g><!--link RP to CCE--><g id="link_RP_CCE"><path d="M3787.12,2650.4375 C3583.32,2650.4375 3350.6,2650.4375 3130.76,2650.4375 " fill="none" id="RP-to-CCE" style="stroke:#191919;stroke-width:4.0;"/><polygon fill="#191919" points="3106.76,2650.4375,3142.76,2666.4375,3126.76,2650.4375,3142.76,2634.4375,3106.76,2650.4375" style="stroke:#191919;stroke-width:4.0;"/><text fill="#000000" font-family="sans-serif" font-size="44" lengthAdjust="spacing" textLength="872" x="3011" y="2588.1133">Initiates Course Computation with Parameters</text></g><!--link CCE to RP--><g id="link_CCE_RP"><path d="M3107.08,2783.4775 C3148.44,2795.0375 3175,2802.4375 3175,2802.4375 C3175,2802.4375 3719,2802.4375 3719,2802.4375 C3719,2802.4375 3723.2825,2800.8888 3763.7225,2786.6488 " fill="none" id="CCE-to-RP" style="stroke:#191919;stroke-width:4.0;"/><polygon fill="#191919" points="3786.36,2778.6775,3747.0895,2775.5427,3767.4954,2785.3202,3757.7179,2805.7261,3786.36,2778.6775" style="stroke:#191919;stroke-width:4.0;"/><text fill="#000000" font-family="sans-serif" font-size="44" lengthAdjust="spacing" textLength="456" x="3219" y="2752.1133">Returns Optimal Course</text></g><!--link CCE to WDF--><g id="link_CCE_WDF"><path d="M2298.28,2786.7175 C2137.2,2850.9575 1978,2914.4375 1978,2914.4375 C1978,2914.4375 1978,3054.4375 1978,3054.4375 C1978,3054.4375 2375.5899,3317.6662 2634.1099,3488.8662 " fill="none" id="CCE-to-WDF" style="stroke:#191919;stroke-width:4.0;"/><polygon fill="#191919" points="2654.12,3502.1175,2632.9391,3468.9005,2637.4449,3491.0748,2615.2707,3495.5806,2654.12,3502.1175" style="stroke:#191919;stroke-width:4.0;"/><text fill="#000000" font-family="sans-serif" font-size="44" lengthAdjust="spacing" textLength="392" x="2022" y="3004.1133">Requests Wind Data</text></g><!--link WDF to CCE--><g id="link_WDF_CCE"><path d="M2799.84,3501.3575 C2730.2,3330.1575 2618,3054.4375 2618,3054.4375 C2618,3054.4375 2618,2914.4375 2618,2914.4375 C2618,2914.4375 2619.8255,2875.4125 2622.7455,2811.4525 " fill="none" id="WDF-to-CCE" style="stroke:#191919;stroke-width:4.0;"/><polygon fill="#191919" points="2623.84,2787.4775,2606.2148,2822.7103,2622.9279,2807.4567,2638.1815,2824.1697,2623.84,2787.4775" style="stroke:#191919;stroke-width:4.0;"/><text fill="#000000" font-family="sans-serif" font-size="44" lengthAdjust="spacing" textLength="524" x="2662" y="3004.1133">Provides Wind Data : down</text></g><!--link CCE to OCF--><g id="link_CCE_OCF"><path d="M2943.4,2786.7175 C3095.6,2850.9575 3246,2914.4375 3246,2914.4375 C3246,2914.4375 3541.2196,3275.9283 3710.9796,3483.8083 " fill="none" id="CCE-to-OCF" style="stroke:#191919;stroke-width:4.0;"/><polygon fill="#191919" points="3726.16,3502.3975,3715.7822,3464.3935,3713.5097,3486.9065,3690.9967,3484.634,3726.16,3502.3975" style="stroke:#191919;stroke-width:4.0;"/><text fill="#000000" font-family="sans-serif" font-size="44" lengthAdjust="spacing" textLength="580" x="3402" y="3004.1133">Requests Ocean Current Data</text></g><!--link OCF to CCE--><g id="link_OCF_CCE"><path d="M3885.4,3501.3575 C3951.52,3330.1575 4058,3054.4375 4058,3054.4375 C4058,3054.4375 4058,2914.4375 4058,2914.4375 C4058,2914.4375 3718,2882.4375 3718,2882.4375 C3718,2882.4375 3423.0496,2820.641 3130.6896,2759.361 " fill="none" id="OCF-to-CCE" style="stroke:#191919;stroke-width:4.0;"/><polygon fill="#191919" points="3107.2,2754.4375,3139.152,2777.4825,3126.7746,2758.5404,3145.7167,2746.1631,3107.2,2754.4375" style="stroke:#191919;stroke-width:4.0;"/><text fill="#000000" font-family="sans-serif" font-size="44" lengthAdjust="spacing" textLength="564" x="4102" y="3004.1133">Provides Ocean Current Data</text></g><!--link CCE to TDF--><g id="link_CCE_TDF"><path d="M3107.2,2754.4375 C3399.56,2815.7175 3718,2882.4375 3718,2882.4375 C3718,2882.4375 4742,2914.4375 4742,2914.4375 C4742,2914.4375 4777.6105,3270.6367 4798.4105,3478.5167 " fill="none" id="CCE-to-TDF" style="stroke:#191919;stroke-width:4.0;"/><polygon fill="#191919" points="4800.8,3502.3975,4813.1363,3464.9834,4798.8088,3482.4969,4781.2953,3468.1693,4800.8,3502.3975" style="stroke:#191919;stroke-width:4.0;"/><text fill="#000000" font-family="sans-serif" font-size="44" lengthAdjust="spacing" textLength="384" x="4798" y="3004.1133">Requests Tidal Data</text></g><!--link TDF to CCE--><g id="link_TDF_CCE"><path d="M4915.88,3501.3575 C5046.96,3330.1575 5258,3054.4375 5258,3054.4375 C5258,3054.4375 5258,2914.4375 5258,2914.4375 C5258,2914.4375 3718,2882.4375 3718,2882.4375 C3718,2882.4375 3423.0496,2820.641 3130.6896,2759.361 " fill="none" id="TDF-to-CCE" style="stroke:#191919;stroke-width:4.0;"/><polygon fill="#191919" points="3107.2,2754.4375,3139.152,2777.4825,3126.7746,2758.5404,3145.7167,2746.1631,3107.2,2754.4375" style="stroke:#191919;stroke-width:4.0;"/><text fill="#000000" font-family="sans-serif" font-size="44" lengthAdjust="spacing" textLength="368" x="5302" y="3004.1133">Provides Tidal Data</text></g><!--link WDF to WIND_DB--><g id="link_WDF_WIND_DB"><path d="M2508.28,3774.4775 C2243.04,3875.7975 1922,3998.4375 1922,3998.4375 C1922,3998.4375 1922,4138.4375 1922,4138.4375 C1922,4138.4375 2422.4056,4404.2571 2743.2856,4574.7371 " fill="none" id="WDF-to-WIND_DB" style="stroke:#191919;stroke-width:4.0;"/><polygon fill="#191919" points="2764.48,4585.9975,2740.1953,4554.9773,2746.818,4576.6139,2725.1814,4583.2366,2764.48,4585.9975" style="stroke:#191919;stroke-width:4.0;"/><text fill="#000000" font-family="sans-serif" font-size="44" lengthAdjust="spacing" textLength="488" x="1966" y="4088.1133">Fetches Wind Information</text></g><!--link WIND_DB to WDF--><g id="link_WIND_DB_WDF"><path d="M2955.56,4585.2775 C2884.72,4414.7575 2770,4138.4375 2770,4138.4375 C2770,4138.4375 2770,3998.4375 2770,3998.4375 C2770,3998.4375 2793.3281,3899.556 2817.2081,3798.356 " fill="none" id="WIND_DB-to-WDF" style="stroke:#191919;stroke-width:4.0;"/><polygon fill="#191919" points="2822.72,3774.9975,2798.8799,3806.3607,2818.1268,3794.4629,2830.0245,3813.7098,2822.72,3774.9975" style="stroke:#191919;stroke-width:4.0;"/><text fill="#000000" font-family="sans-serif" font-size="44" lengthAdjust="spacing" textLength="360" x="2814" y="4088.1133">Returns Wind Data</text></g><!--link OCF to CUR_DB--><g id="link_OCF_CUR_DB"><path d="M3865.28,3774.9975 C3889.16,3876.1975 3918,3998.4375 3918,3998.4375 C3918,3998.4375 3918,4138.4375 3918,4138.4375 C3918,4138.4375 3835.5406,4391.9335 3780.1006,4562.4535 " fill="none" id="OCF-to-CUR_DB" style="stroke:#191919;stroke-width:4.0;"/><polygon fill="#191919" points="3772.68,4585.2775,3799.0269,4555.9886,3778.8638,4566.2575,3768.5949,4546.0944,3772.68,4585.2775" style="stroke:#191919;stroke-width:4.0;"/><text fill="#000000" font-family="sans-serif" font-size="44" lengthAdjust="spacing" textLength="676" x="3962" y="4088.1133">Fetches Ocean Current Information</text></g><!--link CUR_DB to OCF--><g id="link_CUR_DB_OCF"><path d="M3639.92,4585.6375 C3528.72,4424.1175 3354,4170.4375 3354,4170.4375 C3354,4170.4375 3250,4138.4375 3250,4138.4375 C3250,4138.4375 3250,3998.4375 3250,3998.4375 C3250,3998.4375 3430.0278,3888.6903 3596.0278,3787.4903 " fill="none" id="CUR_DB-to-OCF" style="stroke:#191919;stroke-width:4.0;"/><polygon fill="#191919" points="3616.52,3774.9975,3577.4532,3780.0753,3599.4432,3785.4082,3594.1103,3807.3982,3616.52,3774.9975" style="stroke:#191919;stroke-width:4.0;"/><text fill="#000000" font-family="sans-serif" font-size="44" lengthAdjust="spacing" textLength="548" x="3294" y="4088.1133">Returns Ocean Current Data</text></g><!--link TDF to TIDE_DB--><g id="link_TDF_TIDE_DB"><path d="M4787.2,3775.3575 C4757.6,3922.2775 4714,4138.4375 4714,4138.4375 C4714,4138.4375 4597.7706,4392.9266 4519.8906,4563.4466 " fill="none" id="TDF-to-TIDE_DB" style="stroke:#191919;stroke-width:4.0;"/><polygon fill="#191919" points="4509.92,4585.2775,4539.4298,4559.1783,4518.2288,4567.0851,4510.322,4545.8841,4509.92,4585.2775" style="stroke:#191919;stroke-width:4.0;"/><text fill="#000000" font-family="sans-serif" font-size="44" lengthAdjust="spacing" textLength="480" x="4782" y="4088.1133">Fetches Tidal Information</text></g><!--link TIDE_DB to TDF--><g id="link_TIDE_DB_TDF"><path d="M4650.4,4585.9975 C4912.28,4415.5175 5338,4138.4375 5338,4138.4375 C5338,4138.4375 5338,3998.4375 5338,3998.4375 C5338,3998.4375 5177.932,3889.6845 5028.972,3788.4845 " fill="none" id="TIDE_DB-to-TDF" style="stroke:#191919;stroke-width:4.0;"/><polygon fill="#191919" points="5009.12,3774.9975,5029.9067,3808.4626,5025.6633,3786.2367,5047.8893,3781.9933,5009.12,3774.9975" style="stroke:#191919;stroke-width:4.0;"/><text fill="#000000" font-family="sans-serif" font-size="44" lengthAdjust="spacing" textLength="352" x="5382" y="4088.1133">Returns Tidal Data</text></g><!--SRC=[ZLR1RXit4BtlLqnzINj8KHzowQ60lB8S0Kajs19y2L1GkoE94KLkIAvajSY_zytkQaN9cw8299ZacvatCsz8_nGtl6FQAH-ogADXUgoYtYb3pqeRRTUKkze7fXTUqgYgZ2vKrCvceL00VyZUKNGLlhHqCReTbTfpqI1mzC2MFNnLgYp5bx8bAQFNTiSsKk0OiHkoiDMsKbxjUk3jRybcuNQLix2O_UVfSwKAEVsGdfQyKhM9StwDepvmWH_sGd1KVgr392Iw9LLL31jRS6AF4ux7YgbovYYBv6palJjC72BhlvbkR-7lwZ1tndcwCwhONjlDDxhOMWw1BkrM-ZNNlZ3yIItPFExP6n2JlAAlcOJqc5SWSauyD7L58xKdxmo7J1KHSHU1FQb02p7whBIL54yDHBzgMof_p52shLeptVo_pj_GFrb6-FHsT_Y3mU2P_LuN70H1tQSdIJUZsPGULEI3Eju8BQmVXd1F_ArcD6Nc7Pm5vnlqqsm8sr7CiLF7DgzxkqPr6fiyls-ClbyHldz5-oqo7QkeQCAnsB3_4UqNZTHIOEFwPJmP0ZyMh2pbjVUoV6Frc0zQpNLvHQP1pxiOr_Gd7ff3mNz46FrQJ1iFYsdd02w6ir-gS6vOsMqaISkoJNZwv_YlyTqLBisqX-QBfxV8SuuzRZuTtmlmk-WpTzQs5qUWWuuRg1MAJXMRBUZz7qY9VaUFaKAWEwSW4naRbdM6i_U0YB00UaQ9Gd9CAyp4IUEjSB862fEd6GmcpX-KXqqpE8bVd083DG4qjJfgg3ZGWFQ4U6eemofTNKbNPQHM7bSadnfmgax8nBTGXwmGevi05FtKXXu01QM0jthhaVDBL-VwPnAa2TQsL39lLDV5creKQjUMNC89j6rfWhmCd9hCE-zTTnERbaAAxUjZt86M4AWy94LIK6w6EJinJKiKQsylAjHIJ8lKGWPgTEAMrga53vIfxJjkexqkEOc8pT8TaXfTueR23djCOg8WbmfDvTMsjXDhdzsbe5kfNan0wu7BQyqtapHce_So75TXPLR6EbH67ONK9rx3LsPTvEQzTwjJ4iUuaSUaUmBY1XE91kvgArFBxKJ88A_aqYB1VB6qrufmrnaLjlWlm8C0_LnNQw-a767ZQbDI3HRbLsNNxXUw2DpU00QNXPUHmss7Iu9GvP8zifHdhjbTufLjNa34J2bziMTM9zvLcqR79MwygzSR-ZYVptwbx5y0]--></g></svg>